<svg xmlns="http://www.w3.org/2000/svg" xlink="http://www.w3.org/1999/xlink" width="0" height="0" style="display:none;"><symbol viewBox="0 0 24 24" id="user-2-line"><path fill="none" d="M0 0h24v24H0z"/><path d="M4 22a8 8 0 1 1 16 0H4zm9-5.917V20h4.659A6.009 6.009 0 0 0 13 16.083zM11 20v-3.917A6.009 6.009 0 0 0 6.341 20H11zm1-7c-3.315 0-6-2.685-6-6s2.685-6 6-6 6 2.685 6 6-2.685 6-6 6zm0-2c2.21 0 4-1.79 4-4s-1.79-4-4-4-4 1.79-4 4 1.79 4 4 4z"/></symbol><symbol viewBox="0 0 24 24" id="search-line"><path fill="none" d="M0 0h24v24H0z"/><path d="M18.031 16.617l4.283 4.282-1.415 1.415-4.282-4.283A8.96 8.96 0 0 1 11 20c-4.968 0-9-4.032-9-9s4.032-9 9-9 9 4.032 9 9a8.96 8.96 0 0 1-1.969 5.617zm-2.006-.742A6.977 6.977 0 0 0 18 11c0-3.868-3.133-7-7-7-3.868 0-7 3.132-7 7 0 3.867 3.132 7 7 7a6.977 6.977 0 0 0 4.875-1.975l.15-.15z"/></symbol><symbol viewBox="0 0 24 24" id="message-3-line"><path fill="none" d="M0 0h24v24H0z"/><path d="M2 8.994A5.99 5.99 0 0 1 8 3h8c3.313 0 6 2.695 6 5.994V21H8c-3.313 0-6-2.695-6-5.994V8.994zM20 19V8.994A4.004 4.004 0 0 0 16 5H8a3.99 3.99 0 0 0-4 3.994v6.012A4.004 4.004 0 0 0 8 19h12zm-6-8h2v2h-2v-2zm-6 0h2v2H8v-2z"/></symbol><symbol viewBox="0 0 24 24" id="group-line"><path fill="none" d="M0 0h24v24H0z"/><path d="M2 22a8 8 0 1 1 16 0h-2a6 6 0 1 0-12 0H2zm8-9c-3.315 0-6-2.685-6-6s2.685-6 6-6 6 2.685 6 6-2.685 6-6 6zm0-2c2.21 0 4-1.79 4-4s-1.79-4-4-4-4 1.79-4 4 1.79 4 4 4zm8.284 3.703A8.002 8.002 0 0 1 23 22h-2a6.001 6.001 0 0 0-3.537-5.473l.82-1.824zm-.688-11.29A5.5 5.5 0 0 1 21 8.5a5.499 5.499 0 0 1-5 5.478v-2.013a3.5 3.5 0 0 0 1.041-6.609l.555-1.943z"/></symbol><symbol viewBox="0 0 24 24" id="contacts-line"><path fill="none" d="M0 0h24v24H0z"/><path d="M19 7h5v2h-5V7zm-2 5h7v2h-7v-2zm3 5h4v2h-4v-2zM2 22a8 8 0 1 1 16 0h-2a6 6 0 1 0-12 0H2zm8-9c-3.315 0-6-2.685-6-6s2.685-6 6-6 6 2.685 6 6-2.685 6-6 6zm0-2c2.21 0 4-1.79 4-4s-1.79-4-4-4-4 1.79-4 4 1.79 4 4 4z"/></symbol><symbol viewBox="0 0 24 24" id="settings-2-line"><path fill="none" d="M0 0h24v24H0z"/><path d="M8.686 4l2.607-2.607a1 1 0 0 1 1.414 0L15.314 4H19a1 1 0 0 1 1 1v3.686l2.607 2.607a1 1 0 0 1 0 1.414L20 15.314V19a1 1 0 0 1-1 1h-3.686l-2.607 2.607a1 1 0 0 1-1.414 0L8.686 20H5a1 1 0 0 1-1-1v-3.686l-2.607-2.607a1 1 0 0 1 0-1.414L4 8.686V5a1 1 0 0 1 1-1h3.686zM6 6v3.515L3.515 12 6 14.485V18h3.515L12 20.485 14.485 18H18v-3.515L20.485 12 18 9.515V6h-3.515L12 3.515 9.515 6H6zm6 10a4 4 0 1 1 0-8 4 4 0 0 1 0 8zm0-2a2 2 0 1 0 0-4 2 2 0 0 0 0 4z"/></symbol><symbol viewBox="0 0 24 24" id="moon-line"><path fill="none" d="M0 0h24v24H0z"/><path d="M10 7a7 7 0 0 0 12 4.9v.1c0 5.523-4.477 10-10 10S2 17.523 2 12 6.477 2 12 2h.1A6.979 6.979 0 0 0 10 7zm-6 5a8 8 0 0 0 15.062 3.762A9 9 0 0 1 8.238 4.938 7.999 7.999 0 0 0 4 12z"/></symbol><symbol viewBox="0 0 24 24" id="global-line"><path fill="none" d="M0 0h24v24H0z"/><path d="M12 22C6.477 22 2 17.523 2 12S6.477 2 12 2s10 4.477 10 10-4.477 10-10 10zm-2.29-2.333A17.9 17.9 0 0 1 8.027 13H4.062a8.008 8.008 0 0 0 5.648 6.667zM10.03 13c.151 2.439.848 4.73 1.97 6.752A15.905 15.905 0 0 0 13.97 13h-3.94zm9.908 0h-3.965a17.9 17.9 0 0 1-1.683 6.667A8.008 8.008 0 0 0 19.938 13zM4.062 11h3.965A17.9 17.9 0 0 1 9.71 4.333 8.008 8.008 0 0 0 4.062 11zm5.969 0h3.938A15.905 15.905 0 0 0 12 4.248 15.905 15.905 0 0 0 10.03 11zm4.259-6.667A17.9 17.9 0 0 1 15.973 11h3.965a8.008 8.008 0 0 0-5.648-6.667z"/></symbol></svg>